<?xml version="1.0" encoding="UTF-8"?>
<svg id="_Слой_1" data-name="Слой 1" xmlns="http://www.w3.org/2000/svg" viewBox="0 0 1080 1080">
  <defs>
    <style>
      .cls-1 {
        fill: none;
        stroke: #243354;
        stroke-miterlimit: 10;
        stroke-width: 15px;
      }

      .cls-2 {
        fill: #243354;
        stroke-width: 0px;
      }
    </style>
  </defs>
  <polyline class="cls-1" points="177.45 467.57 177.45 201.86 910.01 201.86 910.01 901.67 687.18 901.67"/>
  <g>
    <path class="cls-2" d="M675.71,755.61v4.6h-118.39v-4.6l5.17-1.15c4.97-.76,8.52-3.45,10.63-8.05,2.1-4.6,1.81-9-.86-13.22l-50.57-89.65h-217.81l-44.83,79.31c-3.83,6.52-4.12,13.13-.86,19.83,3.25,6.71,8.71,10.44,16.38,11.21l16.09,1.72v4.6h-112.07v-4.6l12.07-1.15c11.87-1.15,22.79-4.97,32.76-11.49,9.96-6.51,18-14.94,24.14-25.29l158.62-278.73-18.39-32.18c-5.75-9.96-13.51-18.19-23.27-24.71-9.77-6.51-20.6-10.34-32.47-11.49l-18.96-1.72v-4.6h121.83v4.6c-2.69.77-4.51,2.4-5.46,4.88-.96,2.5-.86,4.88.29,7.18l193.67,343.09c4.97,8.43,11.39,15.33,19.25,20.69,7.85,5.37,16.57,8.82,26.15,10.34l6.9.58ZM514.8,630.9l-101.15-179.3-102.3,179.3h203.44Z"/>
    <path class="cls-2" d="M808.46,756.76v4.6h-112.07v-4.6l14.94-2.87c4.6-.76,8.33-2.96,11.21-6.61,2.87-3.64,4.31-7.76,4.31-12.36v-344.24c0-4.6-1.44-8.71-4.31-12.36-2.87-3.64-6.61-5.84-11.21-6.61l-14.94-2.87v-4.6h81.61v370.68c0,4.6,1.44,8.72,4.31,12.36,2.87,3.65,6.61,5.85,11.21,6.61l14.94,2.87ZM752.14,326.89c-7.67,0-14.28-2.77-19.83-8.33-5.56-5.55-8.33-12.16-8.33-19.83s2.78-14.27,8.33-19.83c5.55-5.55,12.16-8.33,19.83-8.33s14.27,2.78,19.83,8.33c5.55,5.56,8.33,12.17,8.33,19.83s-2.78,14.28-8.33,19.83c-5.56,5.56-12.17,8.33-19.83,8.33Z"/>
  </g>
  <g>
    <path class="cls-2" d="M296.87,806.98h29.11v1.19l-1.94.15c-3.38.4-6.4,1.62-9.03,3.66-2.64,2.04-4.55,4.65-5.75,7.84l-33.89,90.16h-3.28l-25.23-54.93-20.75,54.93h-3.28l-43.29-94.19c-.9-1.99-2.19-3.63-3.88-4.93-1.69-1.29-3.58-2.14-5.67-2.54l-1.19-.15v-1.19h29.11v1.19l-1.64.3c-1.69.3-2.91,1.17-3.66,2.61-.75,1.44-.77,2.91-.07,4.4l36.12,78.67,16.27-42.99-7.31-15.82-.45-.45c-1.49-3.28-2.61-6.82-3.36-10.6-.75-3.78-.8-7.29-.15-10.52.65-3.23,2.16-5.9,4.55-7.99,2.39-2.09,5.92-3.13,10.6-3.13,4.28,0,7.21,1.02,8.81,3.06,1.59,2.04,2.39,4.55,2.39,7.54s-.55,6.17-1.64,9.55c-1.1,3.38-2.14,6.42-3.13,9.11l-2.84,7.61,25.23,54.93,28.96-77.18c.69-1.89.5-3.68-.6-5.37-1.1-1.69-2.64-2.64-4.63-2.84l-5.08-.6.6-1.49ZM250,805.04c-2.79,0-4.63.87-5.52,2.61-.9,1.74-1.15,4.06-.75,6.94.4,2.89,1.27,6.15,2.61,9.78,1.34,3.63,2.91,7.34,4.7,11.12l2.09-5.67.45-1.34c.99-2.49,1.84-5.1,2.54-7.84.7-2.74,1.04-5.25,1.04-7.54s-.52-4.2-1.57-5.75c-1.04-1.54-2.86-2.31-5.45-2.31h-.15Z"/>
    <path class="cls-2" d="M435.55,890.13c-3.78,3.48-7.46,6.59-11.05,9.33-3.58,2.74-7.34,5.03-11.27,6.87-3.93,1.84-8.16,3.24-12.69,4.18-4.53.94-9.58,1.42-15.15,1.42-7.56,0-14.65-1.39-21.27-4.18-6.62-2.79-12.39-6.59-17.32-11.42-4.93-4.83-8.83-10.47-11.72-16.94-2.89-6.47-4.33-13.38-4.33-20.75s1.44-14.28,4.33-20.75c2.89-6.47,6.79-12.11,11.72-16.94,4.93-4.83,10.7-8.63,17.32-11.42,6.62-2.79,13.71-4.18,21.27-4.18s14.43,1.37,20.9,4.1c6.47,2.74,11.87,6.49,16.2,11.27,4.33,4.78,7.24,10.35,8.73,16.72,1.49,6.37,1.04,13.19-1.34,20.45h-85.39v.9c0,6.97,1.07,13.51,3.21,19.63,2.14,6.12,5.08,11.45,8.81,15.97,3.73,4.53,8.06,8.11,12.99,10.75,4.93,2.64,10.23,3.96,15.9,3.96s11.02-.55,15.45-1.64c4.43-1.09,8.46-2.61,12.09-4.55,3.63-1.94,6.99-4.3,10.08-7.09,3.08-2.79,6.17-5.87,9.25-9.25l3.28,3.58ZM385.69,808.62c-5.37,0-10.45,1.19-15.23,3.58-4.78,2.39-8.98,5.67-12.61,9.85-3.63,4.18-6.59,9.08-8.88,14.7-2.29,5.62-3.63,11.67-4.03,18.14h72.55c1.79-6.47,2.14-12.54,1.04-18.21-1.1-5.67-3.19-10.6-6.27-14.78-3.09-4.18-6.97-7.46-11.64-9.85-4.68-2.39-9.7-3.58-15.08-3.58l.15.15Z"/>
    <path class="cls-2" d="M528.4,899.38c1.09,2.59,2.76,4.75,5,6.49,2.24,1.74,4.8,2.86,7.69,3.36v1.19h-30.75v-1.19l2.24-.45c1.19-.2,2.09-.84,2.69-1.94.6-1.09.65-2.19.15-3.28l-19.56-46.57h-23.73l-17.17,42.1c-.9,2.19-.75,4.28.45,6.27,1.19,1.99,2.93,3.13,5.22,3.43l3.43.45v1.19h-29.11v-1.19l2.39-.3c3.28-.4,6.24-1.57,8.88-3.51,2.64-1.94,4.6-4.45,5.9-7.54l29.26-71.95c.8-1.99,1.09-3.98.9-5.97-.2-1.99-.8-3.81-1.79-5.45-1-1.64-2.34-3.01-4.03-4.11-1.69-1.09-3.58-1.74-5.67-1.94v-1.19h29.11v1.19l-8.66,1.49,37.47,89.27-.3.15ZM494.22,853.71l-10.75-25.53-10.3,25.53h21.05Z"/>
    <path class="cls-2" d="M647.08,888.19c1.49,1.49,2.61,3.56,3.36,6.2.75,2.64.69,5.25-.15,7.84-.85,2.59-2.69,4.85-5.52,6.79s-7.09,2.91-12.76,2.91c-3.98,0-7.52-.52-10.6-1.57-3.09-1.04-5.82-2.51-8.21-4.4-2.39-1.89-4.53-4.18-6.42-6.87-1.89-2.69-3.58-5.67-5.08-8.96-1.99-4.38-3.73-9.01-5.23-13.88-1.49-4.88-3.33-9.5-5.52-13.88-2.19-4.38-5.05-8.23-8.58-11.57-3.53-3.33-8.28-5.7-14.26-7.09v59.71c0,1.19.37,2.26,1.12,3.21.75.95,1.72,1.52,2.91,1.72l3.88.75v1.19h-29.11v-1.19l3.88-.75c1.19-.2,2.16-.77,2.91-1.72.75-.95,1.12-2.02,1.12-3.21v-89.42c0-1.19-.37-2.26-1.12-3.21-.75-.94-1.72-1.52-2.91-1.72l-3.88-.75v-1.19h3.88c4.28,0,8.04-.12,11.27-.37,3.23-.25,6.2-.52,8.88-.82,2.69-.3,5.25-.57,7.69-.82,2.44-.25,5.1-.37,7.99-.37,5.67,0,10.9.72,15.67,2.17,4.78,1.44,8.66,3.48,11.64,6.12,2.98,2.64,4.9,5.8,5.75,9.48.84,3.68.22,7.81-1.87,12.39-1.59,3.48-3.68,6.1-6.27,7.84-2.59,1.74-5.43,2.84-8.51,3.28-3.09.45-6.32.35-9.7-.3-3.38-.65-6.67-1.62-9.85-2.91-3.19-1.29-6.12-2.84-8.81-4.63-2.69-1.79-4.93-3.58-6.72-5.37v7.31c9.16,2.99,16.54,6.72,22.17,11.2,5.62,4.48,10.15,9.23,13.58,14.26,3.43,5.03,6.17,10.08,8.21,15.15,2.04,5.08,4.13,9.63,6.27,13.66,2.14,4.03,4.7,7.31,7.69,9.85,2.99,2.54,7.11,3.81,12.39,3.81,2.29,0,4.23-.62,5.82-1.87,1.59-1.24,2.69-2.74,3.29-4.48.6-1.74.65-3.56.15-5.45-.5-1.89-1.69-3.48-3.58-4.78l2.99-2.84.15-.45ZM568.11,827.88c2.19,3.68,5.3,6.62,9.33,8.81,4.03,2.19,8.14,3.41,12.32,3.66,4.18.25,7.93-.65,11.27-2.69,3.33-2.04,5.35-5.45,6.04-10.23.5-3.28.25-6.14-.75-8.58-1-2.44-2.49-4.45-4.48-6.04-1.99-1.59-4.35-2.81-7.09-3.66-2.74-.84-5.65-1.39-8.73-1.64-3.09-.25-6.17-.22-9.25.08-3.09.3-5.97.8-8.66,1.49v18.81Z"/>
  </g>
  <line class="cls-1" x1="177.45" y1="447.26" x2="177.45" y2="760.21"/>
  <rect class="cls-2" x="778" y="364.24" width="134.1" height="17.57"/>
</svg>